<?xml version="1.0" encoding="utf-8"?>
<!-- Generator: Adobe Illustrator 26.0.2, SVG Export Plug-In . SVG Version: 6.00 Build 0)  -->
<svg version="1.1" id="Layer_1" xmlns="http://www.w3.org/2000/svg" xmlns:xlink="http://www.w3.org/1999/xlink" x="0px" y="0px"
	 viewBox="0 0 595.28 841.89" style="enable-background:new 0 0 595.28 841.89;" xml:space="preserve">
<style type="text/css">
	.st0{fill:#6B6B6B;}
</style>
<path id="빼기_1" class="st0" d="M368.49,474.56c-2.61-0.09-5.19-0.61-7.64-1.55c-3.92-1.77-8.42-1.78-12.34-0.01
	c-2.46,0.95-5.06,1.48-7.7,1.56c-5.17,0-8.25-2.4-8.25-6.41c0-4.18,2.92-9.88,7.62-14.86c2.1-2.27,4.52-4.23,7.17-5.83
	c4.37-3.13,10.24-3.13,14.61,0c2.65,1.6,5.06,3.56,7.17,5.83c4.7,4.98,7.62,10.68,7.62,14.86
	C376.74,472.16,373.65,474.56,368.49,474.56z M351.55,454.24c-1.88-0.01-3.41,1.51-3.41,3.39c0,0.91,0.36,1.78,1,2.43l3.43,3.42
	l0.02,0.01l1.72,1.72c0.19,0.19,0.5,0.19,0.69,0c0,0,0,0,0,0l5.16-5.16c1.33-1.33,1.33-3.49,0-4.82c-1.33-1.33-3.49-1.33-4.82,0l0,0
	l-0.69,0.69l-0.69-0.69C353.32,454.59,352.46,454.24,351.55,454.24z M376.74,452.47c-1.92,0.01-3.69-1.04-4.61-2.72
	c-1-1.87-1.19-4.07-0.53-6.09c0.49-1.66,1.46-3.14,2.77-4.27c1.17-1.02,2.66-1.61,4.22-1.64c1.92-0.01,3.69,1.04,4.61,2.72
	c1,1.87,1.19,4.07,0.53,6.09c-0.49,1.66-1.46,3.14-2.77,4.27C379.78,451.85,378.29,452.43,376.74,452.47L376.74,452.47z
	 M332.56,452.47L332.56,452.47c-1.55-0.04-3.05-0.62-4.22-1.65c-1.32-1.12-2.28-2.61-2.77-4.27c-0.66-2.02-0.47-4.22,0.53-6.09
	c0.92-1.69,2.69-2.73,4.61-2.72c1.55,0.04,3.05,0.62,4.22,1.64c1.32,1.13,2.28,2.61,2.77,4.27c0.66,2.02,0.47,4.22-0.53,6.09
	C336.25,451.43,334.48,452.47,332.56,452.47L332.56,452.47z M346.21,441.42L346.21,441.42c-3.26,0-6.49-3.16-7.67-7.51
	c-0.82-2.69-0.57-5.59,0.7-8.09c0.69-1.29,1.87-2.25,3.28-2.65c0.4-0.11,0.82-0.16,1.24-0.16c3.26,0,6.49,3.16,7.68,7.51
	c0.82,2.69,0.57,5.59-0.7,8.09c-0.69,1.29-1.87,2.25-3.28,2.65C347.05,441.37,346.63,441.42,346.21,441.42L346.21,441.42z
	 M363.08,441.42L363.08,441.42c-0.42,0-0.83-0.05-1.24-0.16c-1.41-0.4-2.59-1.36-3.28-2.65c-1.27-2.51-1.52-5.41-0.7-8.09
	c1.19-4.35,4.41-7.51,7.67-7.51c0.42,0,0.83,0.05,1.24,0.16c1.41,0.4,2.59,1.36,3.28,2.65c1.27,2.51,1.52,5.41,0.7,8.09
	C369.57,438.26,366.35,441.42,363.08,441.42L363.08,441.42z"/>
</svg>
