<?xml version="1.0" encoding="utf-8"?>
<!-- Generator: Adobe Illustrator 26.0.2, SVG Export Plug-In . SVG Version: 6.00 Build 0)  -->
<svg version="1.1" id="Layer_1" xmlns="http://www.w3.org/2000/svg" xmlns:xlink="http://www.w3.org/1999/xlink" x="0px" y="0px"
	 viewBox="0 0 595.28 841.89" style="enable-background:new 0 0 595.28 841.89;" xml:space="preserve">
<style type="text/css">
	.st0{fill:#6B6B6B;}
	.st1{fill:#6B6B6B;stroke:#6B6B6B;stroke-width:2.5;stroke-linecap:round;stroke-linejoin:round;}
</style>
<g id="그룹_104" transform="translate(-1018 -4548.944)">
	<path id="flask-solid" class="st0" d="M1387.99,5017.86l-8.24-13.25v-10.62h0.56c0.93,0,1.69-0.75,1.69-1.68c0,0,0-0.01,0-0.01
		v-1.12c0-0.93-0.75-1.69-1.68-1.69c0,0-0.01,0-0.01,0h-14.63c-0.93,0-1.69,0.75-1.69,1.68c0,0,0,0.01,0,0.01v1.12
		c0,0.93,0.75,1.69,1.68,1.69c0,0,0,0,0.01,0h0.56v10.62l-8.24,13.25c-1.45,2.34-0.73,5.42,1.61,6.88c0.79,0.49,1.69,0.75,2.61,0.75
		h21.53c2.76-0.01,4.99-2.25,4.98-5.01C1388.73,5019.55,1388.47,5018.64,1387.99,5017.86z M1366.94,5011.98l3.39-5.45
		c0.27-0.38,0.41-0.83,0.41-1.29v-11.25h4.49v11.25c0,0.46,0.14,0.91,0.41,1.29l3.39,5.45H1366.94z"/>
	<g id="seedling_path" transform="translate(1023.704 4550.194)">
		<path id="패스_42" class="st1" d="M348.36,432.42v7.81"/>
		<path id="패스_43" class="st1" d="M345.76,435.35c-3.6,0-6.51-2.92-6.51-6.51c0,0,0,0,0,0v-0.65c0-0.66,0.1-1.32,0.3-1.95
			c4.79,0.19,8.63,4.03,8.82,8.82c-0.63,0.2-1.29,0.3-1.95,0.3L345.76,435.35z"/>
		<path id="패스_44" class="st1" d="M351.71,432.75c4.62,0,8.37-3.75,8.37-8.37l0,0v-0.84c0-0.85-0.13-1.7-0.38-2.51
			c-6.16,0.24-11.1,5.18-11.34,11.34c0.81,0.25,1.66,0.38,2.51,0.38L351.71,432.75z"/>
	</g>
</g>
</svg>
