<?xml version="1.0" encoding="utf-8"?>
<!-- Generator: Adobe Illustrator 26.0.2, SVG Export Plug-In . SVG Version: 6.00 Build 0)  -->
<svg version="1.1" id="Layer_1" xmlns="http://www.w3.org/2000/svg" xmlns:xlink="http://www.w3.org/1999/xlink" x="0px" y="0px"
	 viewBox="0 0 595.28 841.89" style="enable-background:new 0 0 595.28 841.89;" xml:space="preserve">
<style type="text/css">
	.st0{fill:#6B6B6B;}
</style>
<g id="hand-holding-water_path" transform="translate(-8.813 -15.326)">
	<path id="패스_40" class="st0" d="M213.95,510.67c0,0.23,0.18,0.41,0.41,0.41h30.5c5.18,0,10.21-1.76,14.26-5l4.88-3.9
		c1.34-1.05,1.57-2.99,0.52-4.33c-1.05-1.34-2.99-1.57-4.33-0.52c-0.01,0.01-0.03,0.02-0.04,0.03l-4.88,3.9
		c-0.67,0.52-1.5,0.79-2.34,0.77h-17.59c-0.11,0-0.21-0.09-0.21-0.2c0-0.11,0.09-0.21,0.2-0.21h8.23c1.7,0.03,3.11-1.33,3.14-3.03
		c0.03-1.7-1.33-3.11-3.03-3.14c-0.04,0-0.07,0-0.11,0h-8.01c-3.76,0-7.46,0.93-10.78,2.71c-1.11,0.63-2.36,0.97-3.64,1h-6.78
		c-0.23,0-0.41,0.18-0.41,0.41V510.67z"/>
	<path id="패스_41" class="st0" d="M238.23,469.47c0.31-0.67,1.1-0.97,1.77-0.67c0.3,0.13,0.53,0.37,0.67,0.67l0.78,1.73
		c0.6,1.33,1.3,2.62,2.09,3.85l2.23,3.48c2.02,3.16,1.1,7.36-2.06,9.38c-0.33,0.21-0.68,0.4-1.04,0.55l-0.3,0.13
		c-1.87,0.78-3.97,0.78-5.84,0l-0.3-0.12c-3.46-1.45-5.09-5.42-3.65-8.88c0.15-0.36,0.33-0.71,0.55-1.04l2.23-3.48
		c0.79-1.23,1.49-2.52,2.09-3.85L238.23,469.47z"/>
</g>
</svg>
